<svg width="29" height="21" viewBox="0 0 29 21" fill="none" xmlns="http://www.w3.org/2000/svg">
<path d="M14.4899 14.1139C18.7832 14.1139 22.4492 14.7946 22.4492 17.5183C22.4492 20.2409 18.8068 20.9464 14.4899 20.9464C10.1965 20.9464 6.53054 20.2657 6.53054 17.5431C6.53054 14.8194 10.173 14.1139 14.4899 14.1139ZM21.3545 12.4738C22.9958 12.4434 24.7605 12.6688 25.4126 12.8288C26.794 13.1004 27.7027 13.6548 28.0791 14.4605C28.3973 15.122 28.3973 15.8895 28.0791 16.5498C27.5032 17.7996 25.6467 18.2008 24.9252 18.3044C24.7762 18.327 24.6563 18.1974 24.672 18.0475C25.0406 14.5845 22.1085 12.9426 21.35 12.5651C21.3175 12.5482 21.3108 12.5223 21.3141 12.5065C21.3164 12.4952 21.3298 12.4772 21.3545 12.4738ZM7.4446 12.4715L7.75368 12.4743C7.77833 12.4776 7.79066 12.4957 7.7929 12.5058C7.79626 12.5227 7.78954 12.5475 7.75817 12.5655C6.99853 12.943 4.06644 14.585 4.43506 18.0468C4.45074 18.1978 4.33198 18.3263 4.18297 18.3049C3.46143 18.2012 1.60492 17.8 1.02904 16.5503C0.709722 15.8888 0.709722 15.1225 1.02904 14.461C1.40549 13.6553 2.31302 13.1008 3.69447 12.8281C4.34766 12.6692 6.11118 12.4438 7.75368 12.4743L7.4446 12.4715ZM14.4899 0.925873C17.413 0.925873 19.7569 3.28112 19.7569 6.22236C19.7569 9.16248 17.413 11.52 14.4899 11.52C11.5667 11.52 9.22287 9.16248 9.22287 6.22236C9.22287 3.28112 11.5667 0.925873 14.4899 0.925873ZM21.6402 1.80915C24.4636 1.80915 26.6808 4.48106 25.9257 7.45723C25.4159 9.46089 23.5706 10.7918 21.5147 10.7377C21.3085 10.732 21.1057 10.7129 20.9097 10.6791C20.7674 10.6543 20.6957 10.4931 20.7763 10.3737C21.5606 9.21296 22.0077 7.81672 22.0077 6.31793C22.0077 4.75377 21.5192 3.29555 20.671 2.09989C20.6441 2.0627 20.624 2.00523 20.6508 1.96241C20.6733 1.92747 20.7147 1.90944 20.7539 1.90043C21.0396 1.84183 21.3332 1.80915 21.6402 1.80915ZM7.4663 1.80903C7.77329 1.80903 8.06684 1.84171 8.35366 1.90031C8.39175 1.90933 8.43433 1.92849 8.45674 1.96229C8.48251 2.00512 8.46346 2.06259 8.43657 2.09978C7.58842 3.29543 7.09993 4.75366 7.09993 6.31781C7.09993 7.81661 7.54697 9.21285 8.33125 10.3736C8.41192 10.493 8.34021 10.6542 8.19792 10.679C8.00073 10.7139 7.79906 10.7319 7.59291 10.7376C5.53697 10.7917 3.69167 9.46077 3.18189 7.45712C2.42562 4.48095 4.64289 1.80903 7.4663 1.80903Z" fill="#EFF2F4"/>
</svg>
