<svg width="23" height="26" viewBox="0 0 23 26" fill="none" xmlns="http://www.w3.org/2000/svg">
<path d="M11.56 0.361755C14.9133 0.361755 17.6702 2.99684 17.8102 6.33578H17.7775C17.7814 6.43284 17.7628 6.52948 17.723 6.61817H17.9184C19.4412 6.61817 21.0358 7.67363 21.6752 10.2216L21.7447 10.5223L22.7068 18.2735C23.3991 23.2174 20.6943 25.2964 17.0046 25.3845L16.7572 25.3874H6.38414C2.63436 25.3874 -0.255144 24.021 0.380177 18.6099L0.423502 18.2735L1.39667 10.5223C1.87654 7.77833 3.48752 6.69605 5.03975 6.62225L5.21192 6.61817H5.30974C5.29324 6.52475 5.29324 6.42919 5.30974 6.33578C5.44967 2.99684 8.20659 0.361755 11.56 0.361755ZM7.9213 10.784C7.31054 10.784 6.81543 11.2936 6.81543 11.9223C6.81543 12.5509 7.31054 13.0605 7.9213 13.0605C8.53205 13.0605 9.02717 12.5509 9.02717 11.9223L9.01855 11.7795C8.95031 11.2183 8.48507 10.784 7.9213 10.784ZM15.1647 10.784C14.554 10.784 14.0589 11.2936 14.0589 11.9223C14.0589 12.5509 14.554 13.0605 15.1647 13.0605C15.7755 13.0605 16.2706 12.5509 16.2706 11.9223C16.2706 11.2936 15.7755 10.784 15.1647 10.784ZM11.5109 1.99141C9.10331 1.99141 7.15156 3.93645 7.15156 6.33578C7.16806 6.42919 7.16806 6.52475 7.15156 6.61817H15.9248C15.8899 6.528 15.8715 6.43238 15.8703 6.33578C15.8703 3.93645 13.9185 1.99141 11.5109 1.99141Z" fill="#EFF2F4"/>
</svg>
