<svg width="26" height="26" viewBox="0 0 26 26" fill="none" xmlns="http://www.w3.org/2000/svg">
<path d="M7.44836 14.6521C9.21267 14.6521 10.6266 16.0798 10.6266 17.8566V22.1222C10.6266 23.8865 9.21267 25.3255 7.44836 25.3255H3.21903C1.46723 25.3255 0.0407715 23.8865 0.0407715 22.1222V17.8566C0.0407715 16.0798 1.46723 14.6521 3.21903 14.6521H7.44836ZM21.8883 14.6521C23.6401 14.6521 25.0665 16.0798 25.0665 17.8566V22.1222C25.0665 23.8865 23.6401 25.3255 21.8883 25.3255H17.6589C15.8946 25.3255 14.4807 23.8865 14.4807 22.1222V17.8566C14.4807 16.0798 15.8946 14.6521 17.6589 14.6521H21.8883ZM7.44836 0.300232C9.21267 0.300232 10.6266 1.73921 10.6266 3.50477V7.77039C10.6266 9.54721 9.21267 10.9737 7.44836 10.9737H3.21903C1.46723 10.9737 0.0407715 9.54721 0.0407715 7.77039V3.50477C0.0407715 1.73921 1.46723 0.300232 3.21903 0.300232H7.44836ZM21.8883 0.300232C23.6401 0.300232 25.0665 1.73921 25.0665 3.50477V7.77039C25.0665 9.54721 23.6401 10.9737 21.8883 10.9737H17.6589C15.8946 10.9737 14.4807 9.54721 14.4807 7.77039V3.50477C14.4807 1.73921 15.8946 0.300232 17.6589 0.300232H21.8883Z" fill="#EFF2F4"/>
</svg>
