<svg width="23" height="26" viewBox="0 0 23 26" fill="none" xmlns="http://www.w3.org/2000/svg">
<path d="M16.7979 0.177177C20.6631 0.177177 22.8153 2.40446 22.8153 6.22087V19.1466C22.8153 23.0256 20.6631 25.2028 16.7979 25.2028H6.3109C2.50701 25.2028 0.292236 23.0256 0.292236 19.1466V6.22087C0.292236 2.40446 2.50701 0.177177 6.3109 0.177177H16.7979ZM6.64875 17.3698C6.27336 17.3323 5.91049 17.5074 5.71029 17.8328C5.51008 18.1456 5.51008 18.5585 5.71029 18.8838C5.91049 19.1967 6.27336 19.3844 6.64875 19.3343H16.4588C16.9581 19.2843 17.3347 18.8576 17.3347 18.3583C17.3347 17.8453 16.9581 17.4198 16.4588 17.3698H6.64875ZM16.4588 11.6627H6.64875C6.10945 11.6627 5.67275 12.1019 5.67275 12.6399C5.67275 13.178 6.10945 13.6159 6.64875 13.6159H16.4588C16.9969 13.6159 17.4348 13.178 17.4348 12.6399C17.4348 12.1019 16.9969 11.6627 16.4588 11.6627ZM10.3888 5.99564H6.64875V6.00815C6.10945 6.00815 5.67275 6.4461 5.67275 6.98415C5.67275 7.5222 6.10945 7.96015 6.64875 7.96015H10.3888C10.9281 7.96015 11.3661 7.5222 11.3661 6.97039C11.3661 6.43359 10.9281 5.99564 10.3888 5.99564Z" fill="#EFF2F4"/>
</svg>
