<svg width="26" height="26" viewBox="0 0 26 26" fill="none" xmlns="http://www.w3.org/2000/svg">
<path d="M18.3914 0.0670362C20.1914 -0.0454628 21.9664 0.579531 23.3039 1.80452C24.5289 3.14201 25.1539 4.91699 25.0539 6.72948V18.4044C25.1664 20.2169 24.5289 21.9918 23.3164 23.3293C21.9789 24.5543 20.1914 25.1793 18.3914 25.0668H6.71644C4.90394 25.1793 3.12895 24.5543 1.79145 23.3293C0.566448 21.9918 -0.0585518 20.2169 0.053948 18.4044V6.72948C-0.0585518 4.91699 0.566448 3.14201 1.79145 1.80452C3.12895 0.579531 4.90394 -0.0454628 6.71644 0.0670362H18.3914ZM18.0664 5.77948C17.2914 5.00449 16.0414 5.00449 15.2664 5.77948L14.4289 6.62948C14.3039 6.75448 14.3039 6.96697 14.4289 7.09197C14.4289 7.09197 14.4535 7.11636 14.4971 7.15977L14.8046 7.46555C14.9825 7.64251 15.2045 7.86349 15.4274 8.08571L16.1833 8.84124C16.341 8.99967 16.4456 9.10584 16.4539 9.11695C16.5914 9.26695 16.6789 9.46695 16.6789 9.69195C16.6789 10.1419 16.3164 10.5169 15.8539 10.5169C15.6414 10.5169 15.4414 10.4294 15.3039 10.2919L13.2164 8.21696C13.1164 8.11696 12.9414 8.11696 12.8414 8.21696L6.87894 14.1794C6.46644 14.5919 6.22894 15.1419 6.21644 15.7294L6.14144 18.6919C6.14144 18.8544 6.19144 19.0044 6.30394 19.1169C6.41644 19.2294 6.56644 19.2919 6.72894 19.2919H9.66644C10.2664 19.2919 10.8414 19.0544 11.2789 18.6294L19.6914 10.1919C20.4539 9.41695 20.4539 8.16696 19.6914 7.40447L18.0664 5.77948Z" fill="white"/>
</svg>
