<svg width="26" height="24" viewBox="0 0 26 24" fill="none" xmlns="http://www.w3.org/2000/svg">
<path d="M20.7637 14.5863C23.1411 14.5863 25.0667 16.4794 25.0667 18.8151C25.0667 21.1495 23.1411 23.0427 20.7637 23.0427C18.3876 23.0427 16.4607 21.1495 16.4607 18.8151C16.4607 16.4794 18.3876 14.5863 20.7637 14.5863ZM10.1555 17.0117C11.1968 17.0117 12.0421 17.8422 12.0421 18.8653C12.0421 19.887 11.1968 20.7188 10.1555 20.7188H1.92766C0.886321 20.7188 0.0410156 19.887 0.0410156 18.8653C0.0410156 17.8422 0.886321 17.0117 1.92766 17.0117H10.1555ZM4.34401 0.797668C6.72143 0.797668 8.64701 2.69084 8.64701 5.0252C8.64701 7.36093 6.72143 9.2541 4.34401 9.2541C1.96798 9.2541 0.0410156 7.36093 0.0410156 5.0252C0.0410156 2.69084 1.96798 0.797668 4.34401 0.797668ZM23.1814 3.17301C24.2213 3.17301 25.0667 4.00349 25.0667 5.0252C25.0667 6.04828 24.2213 6.87876 23.1814 6.87876H14.9536C13.9122 6.87876 13.0669 6.04828 13.0669 5.0252C13.0669 4.00349 13.9122 3.17301 14.9536 3.17301H23.1814Z" fill="#EFF2F4"/>
</svg>
