<svg width="25" height="26" viewBox="0 0 25 26" fill="none" xmlns="http://www.w3.org/2000/svg">
<path d="M8.96848 23.4833V19.6572C8.96848 18.6806 9.76604 17.8888 10.7499 17.8888H14.3463C14.8187 17.8888 15.2718 18.0751 15.6059 18.4068C15.94 18.7384 16.1277 19.1882 16.1277 19.6572V23.4833C16.1247 23.8894 16.2851 24.2798 16.5733 24.568C16.8614 24.8561 17.2536 25.0182 17.6626 25.0182H20.1162C21.2622 25.0212 22.3622 24.5713 23.1735 23.7679C23.9849 22.9646 24.4409 21.8737 24.4409 20.7361V9.83623C24.4409 8.91729 24.0305 8.04562 23.3205 7.45605L14.9737 0.838272C13.5218 -0.322051 11.4414 -0.284587 10.0328 0.92725L1.87651 7.45605C1.13291 8.02824 0.688467 8.90249 0.666504 9.83623V20.725C0.666504 23.0961 2.60271 25.0182 4.99115 25.0182H7.38875C8.23829 25.0182 8.92872 24.3378 8.93487 23.4944L8.96848 23.4833Z" fill="#EFF2F4"/>
</svg>
