<svg width="26" height="26" viewBox="0 0 26 26" fill="none" xmlns="http://www.w3.org/2000/svg">
<path d="M17.9767 0.115635C22.2176 0.115635 25.0667 3.09132 25.0667 7.51912V17.7378C25.0667 22.1656 22.2176 25.1413 17.9754 25.1413H7.13101C2.89005 25.1413 0.0410156 22.1656 0.0410156 17.7378V7.51912C0.0410156 3.09132 2.89005 0.115635 7.13101 0.115635H17.9767ZM19.3565 13.3167C18.0152 12.48 16.9797 13.655 16.7004 14.0308C16.4311 14.3937 16.1996 14.794 15.9555 15.1943C15.3591 16.1821 14.6758 17.3211 13.4931 17.9835C11.7743 18.9352 10.4695 18.0584 9.53079 17.4205C9.17848 17.1829 8.83623 16.9582 8.49524 16.8084C7.65473 16.4456 6.89851 16.8588 5.77614 18.2844C5.18728 19.0295 4.60345 19.7681 4.01206 20.5042C3.65849 20.9445 3.7428 21.6237 4.21968 21.9182C4.98092 22.3869 5.90952 22.6387 6.95891 22.6387H17.5044C18.0995 22.6387 18.696 22.5574 19.2647 22.3714C20.5456 21.953 21.5623 20.9949 22.0933 19.7294C22.5412 18.6653 22.7589 17.374 22.3399 16.2997C22.2002 15.9433 21.9913 15.6114 21.6982 15.3196C20.9294 14.5564 20.2109 13.8436 19.3565 13.3167ZM8.17292 5.12076C6.44785 5.12076 5.04614 6.52436 5.04614 8.24897C5.04614 9.97357 6.44785 11.3772 8.17292 11.3772C9.89674 11.3772 11.2997 9.97357 11.2997 8.24897C11.2997 6.52436 9.89674 5.12076 8.17292 5.12076Z" fill="#EFF2F4"/>
</svg>
