<svg width="27" height="26" viewBox="0 0 27 26" fill="none" xmlns="http://www.w3.org/2000/svg">
<path d="M11.9191 0.179443C15.0255 0.179443 17.559 2.66949 17.559 5.73514V11.7288H9.92032C9.37289 11.7288 8.94003 12.1542 8.94003 12.6923C8.94003 13.2178 9.37289 13.6558 9.92032 13.6558H17.559V19.6369C17.559 22.7025 15.0255 25.2051 11.8936 25.2051H5.69361C2.5745 25.2051 0.0410156 22.715 0.0410156 19.6494V5.74765C0.0410156 2.66949 2.58723 0.179443 5.70634 0.179443H11.9191ZM20.7375 8.37559C21.1129 7.98769 21.726 7.98769 22.1014 8.36308L25.7551 12.0043C25.9428 12.192 26.0429 12.4297 26.0429 12.6925C26.0429 12.9428 25.9428 13.193 25.7551 13.3682L22.1014 17.0094C21.9137 17.1971 21.6634 17.2972 21.4257 17.2972C21.1754 17.2972 20.9252 17.1971 20.7375 17.0094C20.3621 16.6341 20.3621 16.0209 20.7375 15.6455L22.7395 13.656H17.5592V11.729H22.7395L20.7375 9.73949C20.3621 9.3641 20.3621 8.75098 20.7375 8.37559Z" fill="white"/>
</svg>
