<svg width="25" height="26" viewBox="0 0 25 26" fill="none" xmlns="http://www.w3.org/2000/svg">
<path d="M13.4511 0.484985C14.3974 0.484985 15.2542 1.01052 15.7273 1.78632C15.9575 2.1617 16.1109 2.62468 16.0726 3.11268C16.047 3.48806 16.1621 3.86345 16.3667 4.21381C17.0189 5.2774 18.4639 5.67781 19.5892 5.07719C20.8551 4.35145 22.4536 4.7894 23.1825 6.02816L24.0392 7.50468C24.7809 8.74345 24.3717 10.3326 23.093 11.0458C22.006 11.684 21.6224 13.0979 22.2746 14.174C22.4792 14.5119 22.7093 14.7997 23.0674 14.9748C23.515 15.2126 23.8602 15.588 24.1032 15.9633C24.5763 16.7391 24.538 17.6901 24.0776 18.5285L23.1825 20.03C22.7093 20.8308 21.827 21.3313 20.9191 21.3313C20.4715 21.3313 19.9728 21.2062 19.5636 20.956C19.2311 20.7432 18.8475 20.6682 18.4383 20.6682C17.1723 20.6682 16.1109 21.7067 16.0726 22.9455C16.0726 24.3845 14.8961 25.5106 13.4256 25.5106H11.6865C10.2031 25.5106 9.02664 24.3845 9.02664 22.9455C9.00106 21.7067 7.93969 20.6682 6.67372 20.6682C6.25173 20.6682 5.86811 20.7432 5.54842 20.956C5.13922 21.2062 4.62771 21.3313 4.19293 21.3313C3.27223 21.3313 2.38989 20.8308 1.91675 20.03L1.03441 18.5285C0.561266 17.7151 0.53569 16.7391 1.00883 15.9633C1.21343 15.588 1.59706 15.2126 2.03184 14.9748C2.38989 14.7997 2.62006 14.5119 2.83745 14.174C3.47683 13.0979 3.0932 11.684 2.00626 11.0458C0.740292 10.3326 0.331089 8.74345 1.05998 7.50468L1.91675 6.02816C2.65843 4.7894 4.24409 4.35145 5.52284 5.07719C6.63536 5.67781 8.08036 5.2774 8.73252 4.21381C8.93712 3.86345 9.05221 3.48806 9.02664 3.11268C9.00106 2.62468 9.14172 2.1617 9.38469 1.78632C9.85783 1.01052 10.7146 0.510011 11.6481 0.484985H13.4511ZM12.5688 9.46919C10.5611 9.46919 8.93712 11.0458 8.93712 13.0103C8.93712 14.9748 10.5611 16.5389 12.5688 16.5389C14.5764 16.5389 16.1621 14.9748 16.1621 13.0103C16.1621 11.0458 14.5764 9.46919 12.5688 9.46919Z" fill="#EFF2F4"/>
</svg>
